<?xml version="1.0" encoding="utf-8"?>
<!-- Generator: Adobe Illustrator 22.1.0, SVG Export Plug-In . SVG Version: 6.00 Build 0)  -->
<svg version="1.1" id="Layer_1" xmlns="http://www.w3.org/2000/svg" xmlns:xlink="http://www.w3.org/1999/xlink" x="0px" y="0px"
	 viewBox="0 0 312.6 361.2" style="enable-background:new 0 0 312.6 361.2;" xml:space="preserve">
<style type="text/css">
	.st0{fill:#F1F2F2;}
	.st1{fill:#D0D3D2;}
	.st2{fill:#E93564;}
	.st3{fill:#E92155;}
	.st4{fill:#C41C46;}
	.st5{fill:#FFFFFF;}
</style>
<title></title>
<g id="Layer_2_1_">
	<g id="Layer_1-2">
		<path class="st0" d="M264.1,26.9v304.6c0,14.8-12,26.9-26.9,26.9l0,0H40.8c-14.8,0-26.9-12-26.9-26.9l0,0V87.1L101.1,0h136.1
			C252.1,0,264.1,12,264.1,26.9z"/>
		<path class="st1" d="M14,87.1L101.1,0v60.4c0,14.8-12,26.8-26.8,26.8L14,87.1z"/>
		<polygon class="st1" points="264.1,232.3 264.1,323.6 96.9,323.6 40.5,308.7 14,308.7 14,247.3 40.5,247.3 40.5,247.2 96.9,232.3 
					"/>
		<path class="st2" d="M96.9,221.5H291c11.9,0,21.6,9.7,21.6,21.6l0,0v48.1c0,11.9-9.7,21.6-21.6,21.6l0,0H96.9l0,0V221.5
			L96.9,221.5z"/>
		<polygon class="st3" points="96.9,312.8 40.5,297.8 40.5,236.4 96.9,221.5 		"/>
		<rect y="236.5" class="st2" width="40.6" height="61.4"/>
		<polygon class="st4" points="0,236.5 14,228.2 14,236.5 		"/>
		<polygon class="st4" points="0,297.8 14,306.2 14,297.8 		"/>
		<path class="st5" d="M149.8,239.1h14.9v35.4c0,2.3-0.1,4.3-0.2,6c-0.1,1.5-0.3,3-0.6,4.4c-0.2,1.2-0.6,2.3-1.1,3.4
			c-0.5,1-1.1,1.9-1.8,2.8c-1.9,2.4-4.4,4.4-7.2,5.6c-2.9,1.3-6.1,2-9.4,2c-2,0-4-0.3-6-0.8c-1.9-0.5-3.6-1.3-5.3-2.3
			c-1.6-1-3-2.2-4.2-3.5s-2.1-2.9-2.7-4.6c-0.3-0.8-0.5-1.4-0.7-2.1c-0.2-0.6-0.3-1.2-0.4-1.8c-0.1-0.7-0.2-1.3-0.2-2s0-1.6,0-2.7
			h15.8c0,1.8,0.4,3.6,1.2,5.2c1.5,1.9,4.3,2.1,6.1,0.6c0.2-0.2,0.5-0.4,0.7-0.7c0.7-1.1,1-3,1-5.7L149.8,239.1z"/>
		<path class="st5" d="M174,297.5v-58.4h19.1c2.3,0,4.4,0.1,6.2,0.2c1.6,0.1,3.2,0.4,4.8,0.7c1.3,0.3,2.6,0.8,3.8,1.4
			c1.1,0.6,2.2,1.3,3.1,2.1c2.2,1.8,4,4.1,5.1,6.7c1.2,2.8,1.8,5.8,1.8,8.8c0,2.9-0.5,5.8-1.7,8.5c-1,2.5-2.5,4.8-4.5,6.7
			c-2,1.9-4.3,3.2-6.9,3.9c-3.3,0.8-6.7,1.2-10.2,1.1h-6.3v18.3L174,297.5z M188.3,266.1h6c6.2,0,9.3-2.3,9.3-6.9
			c0-2.5-0.8-4.2-2.3-5.3s-4.1-1.6-7.6-1.6h-5.4V266.1z"/>
		<path class="st5" d="M249.6,264.3h34.6c0.1,0.7,0.1,1.3,0.1,1.7s0,0.9,0,1.3c0,4.3-0.8,8.5-2.4,12.5c-3,7.5-9,13.5-16.5,16.5
			c-3.9,1.6-8.1,2.4-12.4,2.4c-4.2,0-8.3-0.8-12.1-2.4c-3.7-1.5-7-3.7-9.8-6.5s-5-6.1-6.6-9.7c-1.6-3.8-2.4-7.9-2.4-12
			s0.8-8.1,2.4-11.9c1.6-3.6,3.8-6.8,6.6-9.5c2.9-2.7,6.2-4.9,9.9-6.4c3.9-1.6,8.1-2.4,12.4-2.3c3.3,0,6.6,0.5,9.7,1.6
			c3.1,1,5.9,2.5,8.6,4.3c2.6,1.8,4.9,4,6.7,6.6c1.9,2.5,3.2,5.3,4.1,8.3h-16.7c-1.2-2.3-3.1-4.3-5.3-5.6c-2.3-1.3-4.9-2-7.5-2
			c-2.2,0-4.3,0.4-6.4,1.2c-1.9,0.8-3.6,1.9-5,3.4s-2.6,3.3-3.3,5.2c-0.8,2.1-1.2,4.3-1.2,6.5c0,2.5,0.4,5,1.2,7.4
			c0.8,2.1,1.9,4,3.5,5.7c1.5,1.6,3.3,2.8,5.3,3.7c2.2,0.9,4.6,1.3,7,1.3c3,0.1,5.9-0.8,8.4-2.5c2.3-1.6,3.9-4.1,4.5-6.8h-17.4
			L249.6,264.3L249.6,264.3z"/>
	</g>
</g>
</svg>
