<?xml version="1.0" encoding="utf-8"?>
<!-- Generator: Adobe Illustrator 22.1.0, SVG Export Plug-In . SVG Version: 6.00 Build 0)  -->
<svg version="1.1" id="Layer_1" xmlns="http://www.w3.org/2000/svg" xmlns:xlink="http://www.w3.org/1999/xlink" x="0px" y="0px"
	 viewBox="0 0 312.6 358.4" style="enable-background:new 0 0 312.6 358.4;" xml:space="preserve">
<style type="text/css">
	.st0{fill:#F1F2F1;}
	.st1{fill:#D3D3D0;}
	.st2{fill:#6535E9;}
	.st3{fill:#4E1ED4;}
	.st4{fill:#491CC4;}
	.st5{fill:#FFFFFF;}
</style>
<title></title>
<g id="Layer_2_1_">
	<g id="Layer_1-2">
		<path class="st0" d="M264.1,26.9v304.6c0,14.8-12,26.9-26.9,26.9l0,0H40.8c-14.8,0-26.9-12-26.9-26.9l0,0V87.1L101.1,0h136.1
			C252.1,0,264.1,12,264.1,26.9z"/>
		<path class="st1" d="M14,87.1L101.1,0v60.4c0,14.8-12,26.8-26.8,26.8L14,87.1z"/>
		<polygon class="st1" points="264.1,232.3 264.1,323.6 96.9,323.6 40.5,308.7 14,308.7 14,247.3 40.5,247.3 40.5,247.2 96.9,232.3 
					"/>
		<path class="st2" d="M96.9,221.5H291c11.9,0,21.6,9.7,21.6,21.6l0,0v48.1c0,11.9-9.7,21.6-21.6,21.6l0,0H96.9l0,0V221.5
			L96.9,221.5z"/>
		<polygon class="st3" points="96.9,312.8 40.5,297.8 40.5,236.4 96.9,221.5 		"/>
		<rect y="236.5" class="st2" width="40.6" height="61.4"/>
		<polygon class="st4" points="0,236.5 14,228.2 14,236.5 		"/>
		<polygon class="st4" points="0,297.8 14,306.2 14,297.8 		"/>
		<path class="st5" d="M147.5,297.5v-9.8l20.2-35.5h-20.2v-13.1h36.8v12.1l-18.7,33.2h18.7v13.1L147.5,297.5z"/>
		<path class="st5" d="M191.1,297.5v-58.4H206v58.4H191.1z"/>
		<path class="st5" d="M215.9,297.5v-58.4H235c2.3,0,4.4,0.1,6.2,0.2c1.6,0.1,3.2,0.4,4.8,0.7c1.3,0.3,2.6,0.8,3.8,1.4
			c1.1,0.6,2.2,1.3,3.1,2.1c2.2,1.8,4,4.1,5.1,6.7c1.2,2.8,1.8,5.8,1.8,8.8c0,2.9-0.5,5.8-1.7,8.5c-1,2.5-2.5,4.8-4.5,6.7
			c-2,1.9-4.3,3.2-6.9,3.9c-3.3,0.8-6.7,1.2-10.2,1.1h-6.4v18.3L215.9,297.5z M230.1,266.1h6c6.2,0,9.3-2.3,9.3-6.9
			c0-2.5-0.8-4.2-2.3-5.3c-1.5-1.1-4.1-1.6-7.6-1.6h-5.4V266.1z"/>
	</g>
</g>
</svg>
